<?xml version="1.0" standalone="no"?>
<!DOCTYPE svg PUBLIC "-//W3C//DTD SVG 20010904//EN"
 "http://www.w3.org/TR/2001/REC-SVG-20010904/DTD/svg10.dtd">
<svg version="1.0" xmlns="http://www.w3.org/2000/svg"
 width="672.000000pt" height="672.000000pt" viewBox="0 0 672.000000 672.000000"
 preserveAspectRatio="xMidYMid meet">
<metadata>
Created by potrace 1.14, written by Peter Selinger 2001-2017
</metadata>
<g transform="translate(0.000000,672.000000) scale(0.100000,-0.100000)"
fill="#000000" stroke="none">
<path d="M1719 6617 c-2 -3 -31 -7 -64 -11 -78 -8 -123 -14 -144 -20 -9 -3
-29 -8 -46 -11 -55 -9 -87 -17 -120 -29 -11 -5 -33 -12 -50 -18 -400 -134
-686 -474 -760 -900 -3 -16 -7 -40 -10 -55 -16 -81 -18 -357 -18 -2533 -1
-2216 0 -2369 17 -2425 9 -33 18 -65 19 -70 6 -28 71 -118 116 -162 104 -101
233 -145 434 -148 127 -1 146 1 218 25 43 15 79 26 79 24 0 -6 113 67 144 93
30 25 113 125 108 130 -1 2 4 16 12 31 18 35 37 107 42 157 2 22 4 428 5 903
0 652 3 862 12 863 7 0 213 1 458 1 l446 1 181 -184 c99 -101 240 -245 312
-319 134 -138 581 -596 885 -906 94 -96 170 -174 170 -174 -1 0 114 -116 254
-258 269 -272 318 -311 443 -353 32 -11 82 -21 111 -24 29 -2 54 -5 57 -6 3
-1 8 -1 11 -1 4 1 29 4 55 7 79 8 91 12 194 63 81 39 80 39 125 77 97 83 142
145 176 240 28 78 30 207 4 285 -42 129 -45 131 -794 877 l-716 713 85 1 c119
1 270 12 330 24 14 3 43 7 65 10 22 3 47 7 55 10 8 2 27 6 42 9 68 11 210 51
296 82 337 122 637 338 840 604 23 30 46 60 52 67 26 32 99 159 141 248 68
141 122 310 160 500 12 56 19 119 34 280 5 53 5 347 0 410 -11 146 -37 309
-68 425 -34 128 -79 247 -134 356 -96 192 -211 339 -402 514 -34 31 -142 110
-150 110 -5 0 -11 4 -13 8 -4 11 -154 102 -167 102 -5 0 -16 6 -23 13 -32 30
-346 159 -443 181 -5 2 -30 8 -55 15 -25 7 -46 13 -47 13 -2 -1 -17 4 -35 9
-18 6 -44 12 -58 15 -14 3 -33 7 -42 10 -19 6 -36 9 -143 29 -88 16 -114 20
-195 30 -30 4 -63 9 -73 11 -9 1 -52 6 -95 9 -42 4 -99 9 -127 12 -58 7 -2189
16 -2196 10z m1951 -931 c63 -3 131 -8 150 -11 19 -2 58 -6 85 -9 28 -2 57 -7
65 -10 8 -2 33 -7 55 -10 22 -3 76 -14 120 -24 324 -79 542 -216 677 -428 42
-64 105 -202 113 -246 2 -11 6 -27 9 -36 3 -9 8 -30 11 -47 2 -16 7 -41 10
-55 25 -121 24 -432 -1 -567 -4 -21 -8 -47 -9 -58 -7 -86 -99 -318 -146 -368
-10 -11 -19 -24 -19 -29 0 -10 -98 -108 -134 -133 -15 -11 -34 -26 -41 -32 -8
-7 -16 -13 -19 -13 -4 0 -24 -11 -46 -25 -21 -14 -45 -26 -52 -27 -7 -2 -15
-6 -18 -9 -5 -6 -146 -59 -170 -64 -8 -2 -44 -11 -80 -20 -72 -19 -76 -20
-140 -30 -76 -11 -93 -14 -150 -20 -30 -3 -75 -9 -100 -12 -25 -4 -516 -8
-1092 -10 l-1047 -4 0 969 c1 734 4 983 13 1028 41 194 152 289 361 306 63 6
1485 0 1595 -6z"/>
</g>
</svg>
