<svg width="19" height="21" viewBox="0 0 19 21" fill="none" xmlns="http://www.w3.org/2000/svg">
<path d="M0.575 4.475C0.575 3.1625 0.95 2.14063 1.7 1.40938C2.46875 0.678125 3.52812 0.3125 4.87812 0.3125H9.88437C12.6781 0.3125 14.7875 0.85625 16.2125 1.94375C17.6375 3.03125 18.35 4.65312 18.35 6.80938C18.35 8.81563 17.75 10.3813 16.55 11.5063C15.3687 12.6313 13.775 13.1938 11.7687 13.1938L16.0437 17.4406C16.3812 17.7781 16.55 18.1625 16.55 18.5938C16.55 19.0438 16.3531 19.4375 15.9594 19.775C15.5469 20.0938 15.1437 20.2531 14.75 20.2531C14.2062 20.2531 13.7094 20.0094 13.2594 19.5219L7.18437 13.3063H4.31562V18.5938C4.31562 19.1188 4.1375 19.5312 3.78125 19.8313C3.425 20.1313 2.975 20.2813 2.43125 20.2813C1.86875 20.2813 1.41875 20.1313 1.08125 19.8313C0.74375 19.5312 0.575 19.1188 0.575 18.5938V4.475ZM9.77187 10.4094C11.0094 10.4094 11.975 10.2875 12.6687 10.0438C13.3625 9.8 13.85 9.425 14.1313 8.91875C14.4312 8.39375 14.5812 7.69063 14.5812 6.80938C14.5812 5.53438 14.1875 4.61563 13.4 4.05313C12.6312 3.49063 11.4219 3.20938 9.77187 3.20938H5.525C5.15 3.20938 4.85 3.33125 4.625 3.575C4.41875 3.81875 4.31562 4.15625 4.31562 4.5875V10.4094H9.77187Z" fill="#0088FF"/>
</svg>
